G04 #@! TF.GenerationSoftware,KiCad,Pcbnew,5.1.5+dfsg1-2build2*
G04 #@! TF.CreationDate,2020-11-20T09:20:28+01:00*
G04 #@! TF.ProjectId,usb-power-switch,7573622d-706f-4776-9572-2d7377697463,1.0*
G04 #@! TF.SameCoordinates,Original*
G04 #@! TF.FileFunction,Profile,NP*
%FSLAX46Y46*%
G04 Gerber Fmt 4.6, Leading zero omitted, Abs format (unit mm)*
G04 Created by KiCad (PCBNEW 5.1.5+dfsg1-2build2) date 2020-11-20 09:20:28*
%MOMM*%
%LPD*%
G04 APERTURE LIST*
%ADD10C,0.050000*%
G04 APERTURE END LIST*
D10*
X130000000Y-112000000D02*
X125000000Y-112000000D01*
X130000000Y-100000000D02*
X125000000Y-100000000D01*
X121000000Y-112000000D02*
X109000000Y-112000000D01*
X109000000Y-109000000D02*
X105000000Y-109000000D01*
X125000000Y-109000000D02*
X121000000Y-109000000D01*
X125000000Y-103000000D02*
X121000000Y-103000000D01*
X125000000Y-109000000D02*
X125000000Y-112000000D01*
X125000000Y-100000000D02*
X125000000Y-103000000D01*
X105000000Y-100000000D02*
X105000000Y-103000000D01*
X105000000Y-109000000D02*
X105000000Y-112000000D01*
X109000000Y-109000000D02*
X109000000Y-112000000D01*
X121000000Y-109000000D02*
X121000000Y-112000000D01*
X121000000Y-100000000D02*
X121000000Y-103000000D01*
X105000000Y-100000000D02*
X100000000Y-100000000D01*
X121000000Y-100000000D02*
X109000000Y-100000000D01*
X100000000Y-100000000D02*
X100000000Y-112000000D01*
X130000000Y-112000000D02*
X130000000Y-100000000D01*
X109000000Y-103000000D02*
X105000000Y-103000000D01*
X100000000Y-112000000D02*
X105000000Y-112000000D01*
X109000000Y-100000000D02*
X109000000Y-103000000D01*
M02*
