G04 #@! TF.GenerationSoftware,KiCad,Pcbnew,5.1.5+dfsg1-2build2*
G04 #@! TF.CreationDate,2020-11-20T09:20:28+01:00*
G04 #@! TF.ProjectId,usb-power-switch,7573622d-706f-4776-9572-2d7377697463,1.0*
G04 #@! TF.SameCoordinates,Original*
G04 #@! TF.FileFunction,Copper,L1,Top*
G04 #@! TF.FilePolarity,Positive*
%FSLAX46Y46*%
G04 Gerber Fmt 4.6, Leading zero omitted, Abs format (unit mm)*
G04 Created by KiCad (PCBNEW 5.1.5+dfsg1-2build2) date 2020-11-20 09:20:28*
%MOMM*%
%LPD*%
G04 APERTURE LIST*
%ADD10C,0.150000*%
%ADD11R,0.900000X0.800000*%
%ADD12R,1.700000X1.700000*%
%ADD13O,1.700000X1.700000*%
%ADD14C,0.800000*%
%ADD15C,0.250000*%
G04 APERTURE END LIST*
G04 #@! TA.AperFunction,SMDPad,CuDef*
D10*
G36*
X106274505Y-104401204D02*
G01*
X106298773Y-104404804D01*
X106322572Y-104410765D01*
X106345671Y-104419030D01*
X106367850Y-104429520D01*
X106388893Y-104442132D01*
X106408599Y-104456747D01*
X106426777Y-104473223D01*
X106443253Y-104491401D01*
X106457868Y-104511107D01*
X106470480Y-104532150D01*
X106480970Y-104554329D01*
X106489235Y-104577428D01*
X106495196Y-104601227D01*
X106498796Y-104625495D01*
X106500000Y-104649999D01*
X106500000Y-105300001D01*
X106498796Y-105324505D01*
X106495196Y-105348773D01*
X106489235Y-105372572D01*
X106480970Y-105395671D01*
X106470480Y-105417850D01*
X106457868Y-105438893D01*
X106443253Y-105458599D01*
X106426777Y-105476777D01*
X106408599Y-105493253D01*
X106388893Y-105507868D01*
X106367850Y-105520480D01*
X106345671Y-105530970D01*
X106322572Y-105539235D01*
X106298773Y-105545196D01*
X106274505Y-105548796D01*
X106250001Y-105550000D01*
X105349999Y-105550000D01*
X105325495Y-105548796D01*
X105301227Y-105545196D01*
X105277428Y-105539235D01*
X105254329Y-105530970D01*
X105232150Y-105520480D01*
X105211107Y-105507868D01*
X105191401Y-105493253D01*
X105173223Y-105476777D01*
X105156747Y-105458599D01*
X105142132Y-105438893D01*
X105129520Y-105417850D01*
X105119030Y-105395671D01*
X105110765Y-105372572D01*
X105104804Y-105348773D01*
X105101204Y-105324505D01*
X105100000Y-105300001D01*
X105100000Y-104649999D01*
X105101204Y-104625495D01*
X105104804Y-104601227D01*
X105110765Y-104577428D01*
X105119030Y-104554329D01*
X105129520Y-104532150D01*
X105142132Y-104511107D01*
X105156747Y-104491401D01*
X105173223Y-104473223D01*
X105191401Y-104456747D01*
X105211107Y-104442132D01*
X105232150Y-104429520D01*
X105254329Y-104419030D01*
X105277428Y-104410765D01*
X105301227Y-104404804D01*
X105325495Y-104401204D01*
X105349999Y-104400000D01*
X106250001Y-104400000D01*
X106274505Y-104401204D01*
G37*
G04 #@! TD.AperFunction*
G04 #@! TA.AperFunction,SMDPad,CuDef*
G36*
X106274505Y-106451204D02*
G01*
X106298773Y-106454804D01*
X106322572Y-106460765D01*
X106345671Y-106469030D01*
X106367850Y-106479520D01*
X106388893Y-106492132D01*
X106408599Y-106506747D01*
X106426777Y-106523223D01*
X106443253Y-106541401D01*
X106457868Y-106561107D01*
X106470480Y-106582150D01*
X106480970Y-106604329D01*
X106489235Y-106627428D01*
X106495196Y-106651227D01*
X106498796Y-106675495D01*
X106500000Y-106699999D01*
X106500000Y-107350001D01*
X106498796Y-107374505D01*
X106495196Y-107398773D01*
X106489235Y-107422572D01*
X106480970Y-107445671D01*
X106470480Y-107467850D01*
X106457868Y-107488893D01*
X106443253Y-107508599D01*
X106426777Y-107526777D01*
X106408599Y-107543253D01*
X106388893Y-107557868D01*
X106367850Y-107570480D01*
X106345671Y-107580970D01*
X106322572Y-107589235D01*
X106298773Y-107595196D01*
X106274505Y-107598796D01*
X106250001Y-107600000D01*
X105349999Y-107600000D01*
X105325495Y-107598796D01*
X105301227Y-107595196D01*
X105277428Y-107589235D01*
X105254329Y-107580970D01*
X105232150Y-107570480D01*
X105211107Y-107557868D01*
X105191401Y-107543253D01*
X105173223Y-107526777D01*
X105156747Y-107508599D01*
X105142132Y-107488893D01*
X105129520Y-107467850D01*
X105119030Y-107445671D01*
X105110765Y-107422572D01*
X105104804Y-107398773D01*
X105101204Y-107374505D01*
X105100000Y-107350001D01*
X105100000Y-106699999D01*
X105101204Y-106675495D01*
X105104804Y-106651227D01*
X105110765Y-106627428D01*
X105119030Y-106604329D01*
X105129520Y-106582150D01*
X105142132Y-106561107D01*
X105156747Y-106541401D01*
X105173223Y-106523223D01*
X105191401Y-106506747D01*
X105211107Y-106492132D01*
X105232150Y-106479520D01*
X105254329Y-106469030D01*
X105277428Y-106460765D01*
X105301227Y-106454804D01*
X105325495Y-106451204D01*
X105349999Y-106450000D01*
X106250001Y-106450000D01*
X106274505Y-106451204D01*
G37*
G04 #@! TD.AperFunction*
D11*
X109800000Y-106000000D03*
X107800000Y-106950000D03*
X107800000Y-105050000D03*
D12*
X127500000Y-104750000D03*
D13*
X127500000Y-107290000D03*
X102500000Y-107290000D03*
D12*
X102500000Y-104750000D03*
X117540000Y-106000000D03*
D13*
X115000000Y-106000000D03*
X112460000Y-106000000D03*
D14*
X119000000Y-106250000D03*
D15*
X105535000Y-107290000D02*
X105800000Y-107025000D01*
X102500000Y-107290000D02*
X105535000Y-107290000D01*
X107725000Y-107025000D02*
X107800000Y-106950000D01*
X105800000Y-107025000D02*
X107725000Y-107025000D01*
X115000000Y-104500000D02*
X115000000Y-106000000D01*
X114500000Y-104000000D02*
X115000000Y-104500000D01*
X107725000Y-104975000D02*
X107800000Y-105050000D01*
X105800000Y-104975000D02*
X107725000Y-104975000D01*
X107800000Y-105050000D02*
X107800000Y-104400000D01*
X107800000Y-104400000D02*
X108200000Y-104000000D01*
X108200000Y-104000000D02*
X114500000Y-104000000D01*
X119000000Y-107500000D02*
X119000000Y-106250000D01*
X118500000Y-108000000D02*
X119000000Y-107500000D01*
X109800000Y-107500000D02*
X110300000Y-108000000D01*
X109800000Y-106000000D02*
X109800000Y-107500000D01*
X110300000Y-108000000D02*
X118500000Y-108000000D01*
M02*
